<svg xmlns="http://www.w3.org/2000/svg" width="512" height="512" viewBox="0 0 512 512" version="1.1">
	<path d="M 236.500 0.620 C 225.701 1.498, 203.933 5.154, 193 7.927 C 158.250 16.740, 122.454 34.754, 94.500 57.495 C 83.134 66.742, 65.138 84.881, 56.073 96.230 C 33.152 124.924, 14.369 163.737, 6.579 198.500 C 1.617 220.647, 0.565 230.877, 0.615 256.500 C 0.669 283.755, 2.330 297.237, 8.549 320.885 C 13.122 338.275, 17.590 350.276, 25.904 367.500 C 38.952 394.531, 52.575 413.744, 74.341 435.816 C 95.450 457.221, 116.515 472.342, 143.500 485.460 C 165.813 496.307, 174.550 499.394, 181.145 498.760 C 187.089 498.189, 190.721 495.171, 191.933 489.797 C 192.369 487.862, 192.499 475.609, 192.220 462.567 C 191.718 439.076, 191.694 438.860, 189.607 439.370 C 182.512 441.105, 168.243 442.187, 159.500 441.654 C 140.519 440.496, 128.414 435.587, 117.359 424.565 C 111.207 418.430, 109.387 415.718, 104.209 404.972 C 97.201 390.430, 90.691 381.316, 83 375.285 C 71.005 365.878, 67.887 362.795, 68.197 360.646 C 68.685 357.267, 72.669 355.856, 80.510 356.285 C 94.364 357.043, 107.531 366.176, 119.080 383.037 C 129.219 397.840, 138.467 405.063, 151.693 408.508 C 161.646 411.101, 175.447 409.896, 188.212 405.321 L 192.923 403.632 194.530 396.566 C 196.523 387.801, 200.751 378.806, 205.458 373.315 L 209.045 369.129 204.273 368.476 C 191.772 366.764, 174.123 362.653, 164.059 359.108 C 125.825 345.640, 103.310 318.412, 95.340 276 C 92.822 262.601, 92.789 228.487, 95.285 218.637 C 98.996 203.991, 105.784 190.254, 114.752 179.243 L 119.121 173.880 117.612 169.190 C 112.407 153.012, 113.019 132.162, 119.273 112.626 L 121.473 105.752 130.487 106.274 C 136.443 106.619, 142.214 107.708, 147.500 109.484 C 156.833 112.619, 174.123 121.169, 184.228 127.646 C 189.328 130.915, 192.031 132.056, 193.902 131.732 C 195.331 131.484, 201.062 130.320, 206.639 129.144 C 238.535 122.422, 273.465 122.422, 305.361 129.144 C 310.938 130.320, 316.669 131.484, 318.098 131.732 C 319.969 132.056, 322.672 130.915, 327.772 127.646 C 337.877 121.169, 355.167 112.619, 364.500 109.484 C 369.786 107.708, 375.557 106.619, 381.513 106.274 L 390.527 105.752 392.727 112.626 C 398.981 132.162, 399.593 153.012, 394.388 169.190 L 392.879 173.880 397.248 179.243 C 406.211 190.247, 412.991 203.965, 416.721 218.637 C 419.201 228.396, 419.155 262.503, 416.643 276 C 413.308 293.925, 406.442 310.960, 397.501 323.500 C 388.550 336.054, 373.275 348.371, 358.356 355.065 C 349.141 359.199, 330.618 364.438, 318 366.478 C 300.900 369.244, 302.328 368.398, 306.514 373.282 C 310.943 378.449, 315.383 387.544, 317.647 396.088 C 319.275 402.235, 319.635 416.639, 319.989 489.850 C 319.995 491.178, 321.478 493.678, 323.400 495.600 C 326.328 498.528, 327.470 499, 331.631 499 C 346.590 499, 391.174 475.894, 417.373 454.563 C 428.367 445.612, 446.429 427.495, 455.376 416.446 C 470.932 397.234, 487.789 367.425, 496.410 343.885 C 503.681 324.032, 510.961 290.289, 510.989 276.309 C 510.995 273.454, 511.450 270.840, 512 270.500 C 512.595 270.132, 513 263.803, 513 254.882 C 513 245.137, 512.650 240.098, 512 240.500 C 511.382 240.882, 511 239.136, 511 235.937 C 511 229.097, 508.475 212.168, 505.417 198.500 C 497.476 163.009, 478.191 123.614, 454.505 94.500 C 445.258 83.134, 427.119 65.138, 415.770 56.073 C 381.221 28.476, 338.969 9.979, 294.500 2.985 C 281.826 0.991, 248.597 -0.363, 236.500 0.620 M 0.402 256 C 0.402 264.525, 0.556 268.012, 0.743 263.750 C 0.931 259.488, 0.931 252.512, 0.743 248.250 C 0.556 243.988, 0.402 247.475, 0.402 256 M 90.461 364.063 C 89.661 365.358, 92.777 369, 94.686 369 C 96.979 369, 97.512 365.847, 95.471 364.355 C 93.245 362.728, 91.355 362.617, 90.461 364.063 M 101.667 372.667 C 99.399 374.934, 104.236 381.208, 106.956 379.527 C 108.743 378.423, 108.104 375.186, 105.777 373.557 C 103.313 371.830, 102.647 371.686, 101.667 372.667 M 111.361 386.502 C 111.044 387.328, 111.065 389.122, 111.407 390.487 C 112.148 393.439, 116.706 395.074, 118.092 392.885 C 119.328 390.933, 119.253 390.591, 116.927 387.635 C 114.620 384.702, 112.238 384.217, 111.361 386.502 M 123 402.977 C 123 408.278, 131.092 411.331, 131.811 406.301 C 132.213 403.491, 128.717 400, 125.500 400 C 123.393 400, 123 400.468, 123 402.977 M 140.667 411.667 C 137.888 414.445, 143.069 419.701, 147.493 418.591 C 150.607 417.810, 150.976 413.593, 148.066 412.035 C 145.885 410.868, 141.675 410.658, 140.667 411.667 M 181.582 413.316 C 179.154 415.092, 179.925 418.415, 182.862 418.833 C 188.361 419.615, 192.444 416.445, 189.895 413.373 C 188.449 411.631, 183.929 411.600, 181.582 413.316 M 161.861 416 L 159.500 418 161.861 420 C 164.512 422.246, 166.240 422.477, 169.066 420.965 C 172.817 418.957, 170.405 414, 165.677 414 C 164.876 414, 163.159 414.900, 161.861 416" stroke="none" fill="black" fill-rule="evenodd"/>
</svg>